# xmcd
#
# Track frame offsets: 
#        150
#        19147
#        38827
#        54597
#        75227
#        96002
#        115587
#        134432
#        155055
#        168277
#        180720
#        197360
#        219282
#
# Disc length: 3191 seconds
#
# Revision: 0
# Processed by: cddbd v1.5.1PL0 Copyright (c) Steve Scherf et al.
# Submitted via: ExactAudioCopy v0.95a3
#
DISCID=9d0c750d
DTITLE=Ronny Elliott  - Poisonville 
DYEAR=2001
DGENRE=Alt. Rock
TTITLE0=Room 100
TTITLE1=Burn, Burn, Burn
TTITLE2=Poisonville
TTITLE3=When Mr. Blues Came To Town
TTITLE4=Letter From A Birmingham Jail
TTITLE5=Born In 1947
TTITLE6=Bluer Than You
TTITLE7=Dirty Dreams
TTITLE8=Bitter Breeze
TTITLE9=Irish Rockabilly Blues
TTITLE10=I Watched Her Tango
TTITLE11=Bury Him Like A Prince
TTITLE12=Oh! Susanna
EXTD=
EXTT0=
EXTT1=
EXTT2=
EXTT3=
EXTT4=
EXTT5=
EXTT6=
EXTT7=
EXTT8=
EXTT9=
EXTT10=
EXTT11=
EXTT12=
PLAYORDER=
